<svg id="visual" viewBox="0 0 900 600" width="900" height="600" xmlns="http://www.w3.org/2000/svg" xmlns:xlink="http://www.w3.org/1999/xlink" version="1.1"><rect x="0" y="0" width="900" height="600" fill="#404040"></rect><path d="M0 126L50 126L50 147L100 147L100 155L150 155L150 115L200 115L200 89L250 89L250 63L300 63L300 116L350 116L350 101L400 101L400 175L450 175L450 86L500 86L500 68L550 68L550 158L600 158L600 103L650 103L650 176L700 176L700 119L750 119L750 127L800 127L800 160L850 160L850 68L900 68L900 92L900 0L900 0L850 0L850 0L800 0L800 0L750 0L750 0L700 0L700 0L650 0L650 0L600 0L600 0L550 0L550 0L500 0L500 0L450 0L450 0L400 0L400 0L350 0L350 0L300 0L300 0L250 0L250 0L200 0L200 0L150 0L150 0L100 0L100 0L50 0L50 0L0 0Z" fill="#FCAF3C"></path></svg>