<svg id="visual" 
viewBox="0 0 900 600" 
width="900" 
height="600" 
xmlns="http://www.w3.org/2000/svg" 
xmlns:xlink="http://www.w3.org/1999/xlink" 
version="1.1"><rect x="0" y="0" width="900" height="600" fill="#001220"></rect>
<path d="M0 487L18.8 484.7C37.7 482.3 75.3 477.7 112.8 473C150.3 468.3 187.7 463.7 225.2 461.7C262.7 459.7 300.3 460.3 337.8 462.7C375.3 465 412.7 469 450.2 476.5C487.7 484 525.3 495 562.8 497.5C600.3 500 637.7 494 675.2 493.5C712.7 493 750.3 498 787.8 495.5C825.3 493 862.7 483 881.3 478L900 473L900 601L881.3 601C862.7 601 825.3 601 787.8 601C750.3 601 712.7 601 675.2 601C637.7 601 600.3 601 562.8 601C525.3 601 487.7 601 450.2 601C412.7 601 375.3 601 337.8 601C300.3 601 262.7 601 225.2 601C187.7 601 150.3 601 112.8 601C75.3 601 37.7 601 18.8 601L0 601Z" fill="#9e773e"></path>
<path d="M0 510L18.8 509.7C37.7 509.3 75.3 508.7 112.8 513.3C150.3 518 187.7 528 225.2 525.5C262.7 523 300.3 508 337.8 503.8C375.3 499.7 412.7 506.3 450.2 508.5C487.7 510.7 525.3 508.3 562.8 506.8C600.3 505.3 637.7 504.7 675.2 505C712.7 505.3 750.3 506.7 787.8 508.7C825.3 510.7 862.7 513.3 881.3 514.7L900 516L900 601L881.3 601C862.7 601 825.3 601 787.8 601C750.3 601 712.7 601 675.2 601C637.7 601 600.3 601 562.8 601C525.3 601 487.7 601 450.2 601C412.7 601 375.3 601 337.8 601C300.3 601 262.7 601 225.2 601C187.7 601 150.3 601 112.8 601C75.3 601 37.7 601 18.8 601L0 601Z" fill="#cc933e"></path>
<path d="M0 569L18.8 563.7C37.7 558.3 75.3 547.7 112.8 542.5C150.3 537.3 187.7 537.7 225.2 540.2C262.7 542.7 300.3 547.3 337.8 549.5C375.3 551.7 412.7 551.3 450.2 552.8C487.7 554.3 525.3 557.7 562.8 555C600.3 552.3 637.7 543.7 675.2 539C712.7 534.3 750.3 533.7 787.8 537.3C825.3 541 862.7 549 881.3 553L900 557L900 601L881.3 601C862.7 601 825.3 601 787.8 601C750.3 601 712.7 601 675.2 601C637.7 601 600.3 601 562.8 601C525.3 601 487.7 601 450.2 601C412.7 601 375.3 601 337.8 601C300.3 601 262.7 601 225.2 601C187.7 601 150.3 601 112.8 601C75.3 601 37.7 601 18.8 601L0 601Z" fill="#fcaf3c"></path></svg>