<svg id="visual" 
viewBox="0 0 900 600" width="900" height="600" xmlns="http://www.w3.org/2000/svg" xmlns:xlink="http://www.w3.org/1999/xlink" version="1.1">
<rect x="0" y="0" width="900" height="600" fill="#001220"></rect>
<path d="M0 499L18.8 493.7C37.7 488.3 75.3 477.7 112.8 481.2C150.3 484.7 187.7 502.3 225.2 509C262.7 515.7 300.3 511.3 337.8 500.5C375.3 489.7 412.7 472.3 450.2 465.2C487.7 458 525.3 461 562.8 465.2C600.3 469.3 637.7 474.7 675.2 482.7C712.7 490.7 750.3 501.3 787.8 502.3C825.3 503.3 862.7 494.7 881.3 490.3L900 486L900 601L881.3 601C862.7 601 825.3 601 787.8 601C750.3 601 712.7 601 675.2 601C637.7 601 600.3 601 562.8 601C525.3 601 487.7 601 450.2 601C412.7 601 375.3 601 337.8 601C300.3 601 262.7 601 225.2 601C187.7 601 150.3 601 112.8 601C75.3 601 37.7 601 18.8 601L0 601Z" fill="#9e773e"></path>
<path d="M0 523L18.8 521C37.7 519 75.3 515 112.8 510.7C150.3 506.3 187.7 501.7 225.2 499.8C262.7 498 300.3 499 337.8 499.5C375.3 500 412.7 500 450.2 507.7C487.7 515.3 525.3 530.7 562.8 538.3C600.3 546 637.7 546 675.2 543.5C712.7 541 750.3 536 787.8 535.7C825.3 535.3 862.7 539.7 881.3 541.8L900 544L900 601L881.3 601C862.7 601 825.3 601 787.8 601C750.3 601 712.7 601 675.2 601C637.7 601 600.3 601 562.8 601C525.3 601 487.7 601 450.2 601C412.7 601 375.3 601 337.8 601C300.3 601 262.7 601 225.2 601C187.7 601 150.3 601 112.8 601C75.3 601 37.7 601 18.8 601L0 601Z" fill="#cc933e"></path>
<path d="M0 553L18.8 556.7C37.7 560.3 75.3 567.7 112.8 564.5C150.3 561.3 187.7 547.7 225.2 541.7C262.7 535.7 300.3 537.3 337.8 542C375.3 546.7 412.7 554.3 450.2 560.2C487.7 566 525.3 570 562.8 568.5C600.3 567 637.7 560 675.2 553.3C712.7 546.7 750.3 540.3 787.8 540.8C825.3 541.3 862.7 548.7 881.3 552.3L900 556L900 601L881.3 601C862.7 601 825.3 601 787.8 601C750.3 601 712.7 601 675.2 601C637.7 601 600.3 601 562.8 601C525.3 601 487.7 601 450.2 601C412.7 601 375.3 601 337.8 601C300.3 601 262.7 601 225.2 601C187.7 601 150.3 601 112.8 601C75.3 601 37.7 601 18.8 601L0 601Z" fill="#fcaf3c"></path></svg>