<svg id="visual" 
viewBox="0 0 900 600" 
width="900" height="600" 
xmlns="http://www.w3.org/2000/svg" 
xmlns:xlink="http://www.w3.org/1999/xlink" 
version="1.1">
<rect x="0" y="0" 
width="900"
 height="600" fill="#001220"></rect>
 <path d="M0 477L18.8 482.5C37.7 488 75.3 499 112.8 497.8C150.3 496.7 187.7 483.3 225.2 475.2C262.7 467 300.3 464 337.8 469.2C375.3 474.3 412.7 487.7 450.2 490C487.7 492.3 525.3 483.7 562.8 477.3C600.3 471 637.7 467 675.2 469.3C712.7 471.7 750.3 480.3 787.8 478.8C825.3 477.3 862.7 465.7 881.3 459.8L900 454L900 601L881.3 601C862.7 601 825.3 601 787.8 601C750.3 601 712.7 601 675.2 601C637.7 601 600.3 601 562.8 601C525.3 601 487.7 601 450.2 601C412.7 601 375.3 601 337.8 601C300.3 601 262.7 601 225.2 601C187.7 601 150.3 601 112.8 601C75.3 601 37.7 601 18.8 601L0 601Z" fill="#9e773e"></path>
 <path d="M0 541L18.8 541.3C37.7 541.7 75.3 542.3 112.8 534.5C150.3 526.7 187.7 510.3 225.2 511.2C262.7 512 300.3 530 337.8 531.7C375.3 533.3 412.7 518.7 450.2 510C487.7 501.3 525.3 498.7 562.8 504.8C600.3 511 637.7 526 675.2 530.7C712.7 535.3 750.3 529.7 787.8 528.3C825.3 527 862.7 530 881.3 531.5L900 533L900 601L881.3 601C862.7 601 825.3 601 787.8 601C750.3 601 712.7 601 675.2 601C637.7 601 600.3 601 562.8 601C525.3 601 487.7 601 450.2 601C412.7 601 375.3 601 337.8 601C300.3 601 262.7 601 225.2 601C187.7 601 150.3 601 112.8 601C75.3 601 37.7 601 18.8 601L0 601Z" fill="#cc933e"></path>
 <path d="M0 573L18.8 573.3C37.7 573.7 75.3 574.3 112.8 571.7C150.3 569 187.7 563 225.2 557.5C262.7 552 300.3 547 337.8 547.5C375.3 548 412.7 554 450.2 552.5C487.7 551 525.3 542 562.8 541.5C600.3 541 637.7 549 675.2 549.8C712.7 550.7 750.3 544.3 787.8 545.2C825.3 546 862.7 554 881.3 558L900 562L900 601L881.3 601C862.7 601 825.3 601 787.8 601C750.3 601 712.7 601 675.2 601C637.7 601 600.3 601 562.8 601C525.3 601 487.7 601 450.2 601C412.7 601 375.3 601 337.8 601C300.3 601 262.7 601 225.2 601C187.7 601 150.3 601 112.8 601C75.3 601 37.7 601 18.8 601L0 601Z" fill="#fcaf3c"></path></svg>