<svg id="visual" viewBox="0 0 900 600" width="900" height="600" xmlns="http://www.w3.org/2000/svg" xmlns:xlink="http://www.w3.org/1999/xlink" version="1.1"><path d="M0 89L4.8 108.2C9.7 127.3 19.3 165.7 29 187.7C38.7 209.7 48.3 215.3 58 197.3C67.7 179.3 77.3 137.7 87 127.5C96.7 117.3 106.3 138.7 116 147.3C125.7 156 135.3 152 145 140.8C154.7 129.7 164.3 111.3 174 103.5C183.7 95.7 193.3 98.3 203 100.7C212.7 103 222.3 105 232 110.8C241.7 116.7 251.3 126.3 261 121.7C270.7 117 280.3 98 290 110.2C299.7 122.3 309.3 165.7 319 170.5C328.7 175.3 338.3 141.7 348 138.3C357.7 135 367.3 162 377 181.2C386.7 200.3 396.3 211.7 406 202.8C415.7 194 425.3 165 435.2 148C445 131 455 126 464.8 139.5C474.7 153 484.3 185 494 193.8C503.7 202.7 513.3 188.3 523 170C532.7 151.7 542.3 129.3 552 119.2C561.7 109 571.3 111 581 124.8C590.7 138.7 600.3 164.3 610 163.8C619.7 163.3 629.3 136.7 639 121.5C648.7 106.3 658.3 102.7 668 111.3C677.7 120 687.3 141 697 160.8C706.7 180.7 716.3 199.3 726 199.2C735.7 199 745.3 180 755 177.5C764.7 175 774.3 189 784 194C793.7 199 803.3 195 813 188.5C822.7 182 832.3 173 842 154.2C851.7 135.3 861.3 106.7 871 115.2C880.7 123.7 890.3 169.3 895.2 192.2L900 215L900 0L895.2 0C890.3 0 880.7 0 871 0C861.3 0 851.7 0 842 0C832.3 0 822.7 0 813 0C803.3 0 793.7 0 784 0C774.3 0 764.7 0 755 0C745.3 0 735.7 0 726 0C716.3 0 706.7 0 697 0C687.3 0 677.7 0 668 0C658.3 0 648.7 0 639 0C629.3 0 619.7 0 610 0C600.3 0 590.7 0 581 0C571.3 0 561.7 0 552 0C542.3 0 532.7 0 523 0C513.3 0 503.7 0 494 0C484.3 0 474.7 0 464.8 0C455 0 445 0 435.2 0C425.3 0 415.7 0 406 0C396.3 0 386.7 0 377 0C367.3 0 357.7 0 348 0C338.3 0 328.7 0 319 0C309.3 0 299.7 0 290 0C280.3 0 270.7 0 261 0C251.3 0 241.7 0 232 0C222.3 0 212.7 0 203 0C193.3 0 183.7 0 174 0C164.3 0 154.7 0 145 0C135.3 0 125.7 0 116 0C106.3 0 96.7 0 87 0C77.3 0 67.7 0 58 0C48.3 0 38.7 0 29 0C19.3 0 9.7 0 4.8 0L0 0Z" fill="#404040" stroke-linecap="round" stroke-linejoin="miter"></path></svg>